# xmcd
#
# Track frame offsets:
#	150
#	14507
#	28277
#	40677
#	57190
#	72880
#	88040
#	100495
#	117000
#	131420
#	142407
#	155115
#	163137
#	173675
#	192977
#
# Disc length: 2906
#
# Revision: 5
# Processed by: cddbd v1.5.1PL0 Copyright (c) Steve Scherf et al.
# Submitted via: EasyCDDAExtractor 7.0.6.1
# Normalized: r4:DSETVAR1
#
DISCID=d70b580f
DTITLE=Various Artist - Mona Lisa Smile
DYEAR=2003
DGENRE=Oldies
TTITLE0=Seal - Mona Lisa
TTITLE1=Tori Amos - You Belong To Me
TTITLE2=Celine Dion - Bewitched
TTITLE3=Elton John - The Heart Of The Every Girl
TTITLE4=Macy Gray - Santa Baby
TTITLE5=Tori Amos - Murder He Says
TTITLE6=Chris Isaak - Besame Mucho
TTITLE7=Mandy Moore - Secret Love
TTITLE8=Alison Krauss - What'll I Do
TTITLE9=The Trevor Horn Orchestra - Istanbul (Not Constantinople)
TTITLE10=The Trevor Horn Orchestra - Sh Boom (Life Could Be A Dream)
TTITLE11=Kelly Rowland - I'm Beginning To See The Light
TTITLE12=Lisa Stansfield - I've Got The World On A String
TTITLE13=Barbara Streisand - Smile
TTITLE14=Rachel Portman - Suite
EXTD=
EXTT0=
EXTT1=
EXTT2=
EXTT3=
EXTT4=
EXTT5=
EXTT6=
EXTT7=
EXTT8=
EXTT9=
EXTT10=
EXTT11=
EXTT12=
EXTT13=
EXTT14=
PLAYORDER=
